<svg width="645" height="562" viewBox="0 0 645 562" fill="none" xmlns="http://www.w3.org/2000/svg">
<mask id="mask0" mask-type="alpha" maskUnits="userSpaceOnUse" x="0" y="0" width="645" height="562">
<path d="M7.18952 317.824L316.563 8.45043C318.13 6.72012 326.881 0.396886 333.124 0.493278C360.243 0.912026 400.891 5.03391 432.26 9.12967L638.194 215.091C646.567 223.464 646.573 237.037 638.208 245.417L329.74 554.338C307.222 563.889 267.496 558.813 228.241 561.582C221.885 562.031 215.724 556.801 211.1 552.101C211.096 552.096 211.091 552.092 211.087 552.087L7.18952 348.163C-1.18842 339.785 -1.18842 326.202 7.18952 317.824Z" fill="black" fill-opacity="0.3"/>
</mask>
<g mask="url(#mask0)">
<g opacity="0.503581" filter="url(#filter0_f)">
<path d="M7.64234 317.824L306.845 18.6214C315.223 10.2434 328.806 10.2434 337.184 18.6213L537.241 218.705C545.614 227.078 545.62 240.651 537.255 249.031L238.278 548.46C229.908 556.845 216.324 556.857 207.939 548.487C207.935 548.483 207.93 548.478 207.925 548.474L7.64234 348.163C-0.735596 339.785 -0.735597 326.202 7.64234 317.824Z" fill="black"/>
</g>
<g filter="url(#filter1_f)">
<path d="M-12.8013 337.807L289.689 35.3174C344.248 -19.2416 406.713 49.5513 417.385 60.2227L566.49 209.355C574.863 217.728 574.869 231.301 566.504 239.681L271.033 535.605C262.662 543.99 178.342 557.959 159.185 540.16C159.18 540.156 159.176 540.151 159.172 540.147L-1.48073 379.467C-9.85867 371.089 -21.1793 346.185 -12.8013 337.807Z" fill="url(#paint0_linear)"/>
</g>
</g>
<defs>
<filter id="filter0_f" x="-7.67961" y="3.29939" width="560.243" height="560.496" filterUnits="userSpaceOnUse" color-interpolation-filters="sRGB">
<feFlood flood-opacity="0" result="BackgroundImageFix"/>
<feBlend mode="normal" in="SourceGraphic" in2="BackgroundImageFix" result="shape"/>
<feGaussianBlur stdDeviation="4.51925" result="effect1_foregroundBlur"/>
</filter>
<filter id="filter1_f" x="-65.7452" y="-35.4844" width="688.519" height="634.261" filterUnits="userSpaceOnUse" color-interpolation-filters="sRGB">
<feFlood flood-opacity="0" result="BackgroundImageFix"/>
<feBlend mode="normal" in="SourceGraphic" in2="BackgroundImageFix" result="shape"/>
<feGaussianBlur stdDeviation="25" result="effect1_foregroundBlur"/>
</filter>
<linearGradient id="paint0_linear" x1="552.569" y1="275.199" x2="584.974" y2="267.907" gradientUnits="userSpaceOnUse">
<stop/>
<stop offset="1" stop-opacity="0.01"/>
</linearGradient>
</defs>
</svg>
