<svg width="254" height="242" viewBox="0 0 254 242" fill="none" xmlns="http://www.w3.org/2000/svg">
<path fill-rule="evenodd" clip-rule="evenodd" d="M147.094 15.5168C156.168 6.44287 165.853 6.44661 174.928 15.522L226.303 66.8964C235.378 75.9719 235.382 85.6567 226.308 94.7306L216.382 104.657C215.783 104.885 214.158 106.51 214.158 106.51L211.654 109.015C211.484 109.217 211.29 109.434 211.098 109.65C210.632 110.172 210.173 110.687 210.07 110.969L204.307 116.732C204.176 116.685 203.988 116.736 203.689 116.993L203.682 116.986L193.006 127.662C192.646 128.023 192.53 128.293 192.572 128.467L188.909 132.129C188.778 132.082 188.591 132.134 188.292 132.39L188.285 132.384L177.609 143.06C177.249 143.42 177.133 143.69 177.174 143.864L94.0385 227C84.9667 236.072 75.2813 236.07 66.2054 226.994L45.2731 206.061C45.1752 205.742 44.8603 205.278 44.4142 204.832C44.3941 204.812 44.3738 204.792 44.3539 204.772C44.343 204.761 44.3322 204.75 44.3215 204.739L36.8999 197.32C36.4835 196.922 36.0614 196.644 35.7643 196.553L14.831 175.619C5.75503 166.543 5.75385 156.857 14.8257 147.785L101.691 60.9195C101.809 60.9164 101.973 60.8502 102.154 60.7347L102.758 60.225L120.103 42.8796L120.096 42.8727C120.356 42.5705 120.515 42.2748 120.52 42.0913L147.094 15.5168Z" fill="url(#paint0_linear)"/>
<path fill-rule="evenodd" clip-rule="evenodd" d="M147.094 15.5168C156.168 6.44287 165.853 6.44661 174.928 15.522L226.303 66.8964C235.378 75.9719 235.382 85.6567 226.308 94.7306L216.382 104.657C215.783 104.885 214.158 106.51 214.158 106.51L211.654 109.015C211.484 109.217 211.29 109.434 211.098 109.65C210.632 110.172 210.173 110.687 210.07 110.969L204.307 116.732C204.176 116.685 203.988 116.736 203.689 116.993L203.682 116.986L193.006 127.662C192.646 128.023 192.53 128.293 192.572 128.467L188.909 132.129C188.778 132.082 188.591 132.134 188.292 132.39L188.285 132.384L177.609 143.06C177.249 143.42 177.133 143.69 177.174 143.864L94.0385 227C84.9667 236.072 75.2813 236.07 66.2054 226.994L45.2731 206.061C45.1752 205.742 44.8603 205.278 44.4142 204.832C44.3941 204.812 44.3738 204.792 44.3539 204.772C44.343 204.761 44.3322 204.75 44.3215 204.739L36.8999 197.32C36.4835 196.922 36.0614 196.644 35.7643 196.553L14.831 175.619C5.75503 166.543 5.75385 156.857 14.8257 147.785L101.691 60.9195C101.809 60.9164 101.973 60.8502 102.154 60.7347L102.758 60.225L120.103 42.8796L120.096 42.8727C120.356 42.5705 120.515 42.2748 120.52 42.0913L147.094 15.5168Z" fill="url(#paint1_linear)"/>
<g filter="url(#filter0_f)">
<path fill-rule="evenodd" clip-rule="evenodd" d="M225.567 83.9701C223.006 81.4087 223.006 77.2559 225.567 74.6945C228.129 72.1331 232.281 72.1331 234.843 74.6945C237.404 77.2559 237.404 81.4087 234.843 83.9701C232.281 86.5315 228.129 86.5315 225.567 83.9701Z" fill="#4A4A4A" fill-opacity="0.15"/>
</g>
<g filter="url(#filter1_f)">
<path fill-rule="evenodd" clip-rule="evenodd" d="M174.537 17.7283C165.346 8.5369 157.221 7.98789 148.023 17.1856L16.1235 149.085C6.92776 158.281 7.65977 166.222 16.8517 175.414L66.4113 224.974C75.6032 234.165 83.7299 235.083 92.9257 225.887L224.825 93.9878C234.023 84.7901 233.288 76.4793 224.097 67.2879L174.537 17.7283Z" fill="url(#paint2_linear)"/>
</g>
<path fill-rule="evenodd" clip-rule="evenodd" d="M174.537 17.7283C165.346 8.5369 157.221 7.98789 148.023 17.1856L16.1235 149.085C6.92776 158.281 7.65977 166.222 16.8517 175.414L66.4113 224.974C75.6032 234.165 83.7299 235.083 92.9257 225.887L224.825 93.9878C234.023 84.7901 233.288 76.4793 224.097 67.2879L174.537 17.7283Z" fill="url(#paint3_linear)" stroke="url(#paint4_linear)" stroke-width="0.131177"/>
<path fill-rule="evenodd" clip-rule="evenodd" d="M173.906 18.2095C164.713 9.01695 157.486 9.20641 148.279 18.4135L17.537 149.156C8.33192 158.361 8.32551 165.404 17.8896 174.968L67.2287 224.307C76.2363 233.314 83.65 233.679 92.6696 224.659L223.597 93.7316C232.804 84.5245 232.808 77.1123 223.616 67.9197L173.906 18.2095Z" fill="url(#paint5_linear)"/>
<path fill-rule="evenodd" clip-rule="evenodd" d="M173.906 18.2095C164.713 9.01695 157.486 9.20641 148.279 18.4135L17.537 149.156C8.33192 158.361 8.32551 165.404 17.8896 174.968L67.2287 224.307C76.2363 233.314 83.65 233.679 92.6696 224.659L223.597 93.7316C232.804 84.5245 232.808 77.1123 223.616 67.9197L173.906 18.2095Z" fill="url(#paint6_linear)"/>
<path fill-rule="evenodd" clip-rule="evenodd" d="M173.906 18.2095C164.713 9.01695 157.486 9.20641 148.279 18.4135L17.537 149.156C8.33192 158.361 8.32551 165.404 17.8896 174.968L67.2287 224.307C76.2363 233.314 83.65 233.679 92.6696 224.659L223.597 93.7316C232.804 84.5245 232.808 77.1123 223.616 67.9197L173.906 18.2095Z" stroke="black" stroke-opacity="0.1" stroke-width="0.2"/>
<path fill-rule="evenodd" clip-rule="evenodd" d="M119.449 43.7197C119.978 43.1638 120.304 42.6667 120.409 42.4537C119.871 42.1266 119.838 42.0316 119.838 42.0316L101.783 60.0868C101.783 60.0868 101.714 60.4258 102.027 60.8354C102.134 60.8266 102.365 60.7378 103.199 59.9693C103.941 59.2273 118.919 44.2756 119.449 43.7197Z" fill="url(#paint7_linear)"/>
<mask id="mask0" mask-type="alpha" maskUnits="userSpaceOnUse" x="101" y="41" width="20" height="20">
<path fill-rule="evenodd" clip-rule="evenodd" d="M119.449 43.7197C119.978 43.1638 120.304 42.6667 120.409 42.4537C119.871 42.1266 119.838 42.0316 119.838 42.0316L101.783 60.0868C101.783 60.0868 101.714 60.4258 102.027 60.8354C102.134 60.8266 102.365 60.7378 103.199 59.9693C103.941 59.2273 118.919 44.2756 119.449 43.7197Z" fill="white"/>
</mask>
<g mask="url(#mask0)">
<path fill-rule="evenodd" clip-rule="evenodd" d="M119.868 41.344C119.868 41.344 120.383 41.7422 119.084 43.1571C109.429 52.8119 103.315 58.9257 103.346 58.8947C101.813 60.428 101.286 60.0651 101.131 60.0807L101.357 59.7705C101.997 59.6449 102.506 59.2202 103.234 58.4921C103.824 57.9025 117.642 44.0837 118.091 43.6351C118.959 42.7668 119.616 41.7382 119.541 41.6707L119.868 41.344Z" fill="#F7FAFF"/>
</g>
<path fill-rule="evenodd" clip-rule="evenodd" d="M187.346 133.136C187.902 132.607 188.272 132.21 188.642 132.156C188.773 132.33 188.904 132.527 189.034 132.747L177.843 143.938C177.718 143.911 177.488 143.814 177.15 143.648C177.2 143.406 177.192 143.356 177.96 142.522C178.702 141.78 186.79 133.666 187.346 133.136Z" fill="url(#paint8_linear)"/>
<path fill-rule="evenodd" clip-rule="evenodd" d="M187.346 133.136C187.902 132.607 188.272 132.21 188.642 132.156C188.773 132.33 188.904 132.527 189.034 132.747L177.843 143.938C177.718 143.911 177.488 143.814 177.15 143.648C177.2 143.406 177.192 143.356 177.96 142.522C178.702 141.78 186.79 133.666 187.346 133.136Z" fill="url(#paint9_linear)"/>
<mask id="mask1" mask-type="alpha" maskUnits="userSpaceOnUse" x="176" y="131" width="14" height="14">
<path fill-rule="evenodd" clip-rule="evenodd" d="M187.346 133.136C187.902 132.607 188.272 132.21 188.642 132.156C188.773 132.33 188.904 132.527 189.034 132.747L177.843 143.938C177.718 143.911 177.488 143.814 177.15 143.648C177.2 143.406 177.192 143.356 177.96 142.522C178.702 141.78 186.79 133.666 187.346 133.136Z" fill="white"/>
</mask>
<g mask="url(#mask1)">
<path fill-rule="evenodd" clip-rule="evenodd" d="M189.721 132.717C189.721 132.717 189.323 132.202 187.908 133.501L179.035 142.375C177.501 143.908 177.864 144.435 177.849 144.59L178.159 144.364C178.284 143.724 178.709 143.215 179.437 142.487L187.43 134.494C188.299 133.626 189.327 132.969 189.395 133.044L189.721 132.717Z" fill="#D0D5DA"/>
</g>
<path fill-rule="evenodd" clip-rule="evenodd" d="M202.743 117.739C203.299 117.209 203.894 116.711 204.057 116.73C204.184 116.908 204.309 117.114 204.431 117.35L193.24 128.541C193.14 128.591 192.918 128.498 192.574 128.26C192.593 128.037 192.687 127.796 193.358 127.125C194.1 126.383 202.187 118.269 202.743 117.739Z" fill="url(#paint10_linear)"/>
<path fill-rule="evenodd" clip-rule="evenodd" d="M202.743 117.739C203.299 117.209 203.894 116.711 204.057 116.73C204.184 116.908 204.309 117.114 204.431 117.35L193.24 128.541C193.14 128.591 192.918 128.498 192.574 128.26C192.593 128.037 192.687 127.796 193.358 127.125C194.1 126.383 202.187 118.269 202.743 117.739Z" fill="url(#paint11_linear)"/>
<mask id="mask2" mask-type="alpha" maskUnits="userSpaceOnUse" x="192" y="116" width="13" height="13">
<path fill-rule="evenodd" clip-rule="evenodd" d="M202.743 117.739C203.299 117.209 203.894 116.711 204.057 116.73C204.184 116.908 204.309 117.114 204.431 117.35L193.24 128.541C193.14 128.591 192.918 128.498 192.574 128.26C192.593 128.037 192.687 127.796 193.358 127.125C194.1 126.383 202.187 118.269 202.743 117.739Z" fill="white"/>
</mask>
<g mask="url(#mask2)">
<path fill-rule="evenodd" clip-rule="evenodd" d="M205.119 117.32C205.119 117.32 204.721 116.805 203.306 118.104L194.432 126.978C192.899 128.511 193.262 129.038 193.246 129.193L193.556 128.967C193.682 128.327 194.107 127.818 194.835 127.09L202.828 119.097C203.696 118.228 204.725 117.572 204.792 117.647L205.119 117.32Z" fill="#D0D5DA"/>
</g>
<path fill-rule="evenodd" clip-rule="evenodd" d="M215.364 105.304C215.807 104.861 216.218 104.674 216.218 104.674L216.675 105.131L216.675 105.477L211.049 111.103L210.662 111.12L210.217 110.676C210.217 110.676 210.577 110.091 211.097 109.571C211.466 109.203 215.031 105.638 215.364 105.304Z" fill="url(#paint12_linear)"/>
<mask id="mask3" mask-type="alpha" maskUnits="userSpaceOnUse" x="210" y="104" width="7" height="8">
<path fill-rule="evenodd" clip-rule="evenodd" d="M215.364 105.304C215.807 104.861 216.218 104.674 216.218 104.674L216.675 105.131L216.675 105.477L211.049 111.103L210.662 111.12L210.217 110.676C210.217 110.676 210.577 110.091 211.097 109.571C211.466 109.203 215.031 105.638 215.364 105.304Z" fill="white"/>
<path fill-rule="evenodd" clip-rule="evenodd" d="M215.364 105.304C215.807 104.861 216.218 104.674 216.218 104.674L216.675 105.131L216.675 105.477L211.049 111.103L210.662 111.12L210.217 110.676C210.217 110.676 210.577 110.091 211.097 109.571C211.466 109.203 215.031 105.638 215.364 105.304Z" stroke="white"/>
</mask>
<g mask="url(#mask3)">
<path fill-rule="evenodd" clip-rule="evenodd" d="M217.219 104.934C217.249 104.964 216.606 104.99 215.774 105.822L211.656 109.94C210.343 111.253 210.683 111.494 210.647 111.631L210.949 111.389C211.15 110.816 211.566 110.401 211.932 110.035L215.642 106.325C216.168 105.799 216.903 105.272 216.951 105.327L217.219 104.934Z" fill="url(#paint13_linear)" fill-opacity="0.2"/>
</g>
<path fill-rule="evenodd" clip-rule="evenodd" d="M199.132 51.2272C199.49 51.5858 199.49 52.1672 199.132 52.5258V52.5258C198.773 52.8844 198.192 52.8844 197.833 52.5258L189.485 44.1777C189.126 43.8191 189.126 43.2377 189.485 42.8791V42.8791C189.844 42.5205 190.425 42.5205 190.784 42.8791L199.132 51.2272Z" fill="#F4F4F4" stroke="url(#paint14_linear)" stroke-width="0.3"/>
<path fill-rule="evenodd" clip-rule="evenodd" d="M184.398 38.4058C184.819 37.6454 185.777 37.3707 186.538 37.7922C187.298 38.2136 187.573 39.1717 187.151 39.9321C186.73 40.6924 185.772 40.9672 185.012 40.5457C184.251 40.1242 183.976 39.1661 184.398 38.4058Z" fill="url(#paint15_linear)"/>
<path fill-rule="evenodd" clip-rule="evenodd" d="M184.857 38.6601C185.138 38.1532 185.776 37.97 186.283 38.251C186.79 38.532 186.973 39.1707 186.692 39.6776C186.411 40.1845 185.773 40.3677 185.266 40.0867C184.759 39.8057 184.576 39.167 184.857 38.6601Z" fill="url(#paint16_radial)"/>
<defs>
<filter id="filter0_f" x="206.666" y="55.7936" width="47.0774" height="47.0774" filterUnits="userSpaceOnUse" color-interpolation-filters="sRGB">
<feFlood flood-opacity="0" result="BackgroundImageFix"/>
<feBlend mode="normal" in="SourceGraphic" in2="BackgroundImageFix" result="shape"/>
<feGaussianBlur stdDeviation="7.13153" result="effect1_foregroundBlur"/>
</filter>
<filter id="filter1_f" x="1.32315" y="2.19971" width="238.488" height="238.488" filterUnits="userSpaceOnUse" color-interpolation-filters="sRGB">
<feFlood flood-opacity="0" result="BackgroundImageFix"/>
<feBlend mode="normal" in="SourceGraphic" in2="BackgroundImageFix" result="shape"/>
<feGaussianBlur stdDeviation="1" result="effect1_foregroundBlur"/>
</filter>
<linearGradient id="paint0_linear" x1="80.1251" y1="240.913" x2="0.911237" y2="161.7" gradientUnits="userSpaceOnUse">
<stop stop-color="#CFD3D8"/>
<stop offset="0.125764" stop-color="#ECEDF0"/>
<stop offset="0.933415" stop-color="#F0F1F2"/>
<stop offset="1" stop-color="#FBFEFF"/>
</linearGradient>
<linearGradient id="paint1_linear" x1="80.0716" y1="177.442" x2="48.3627" y2="209.151" gradientUnits="userSpaceOnUse">
<stop stop-color="white" stop-opacity="0.5"/>
<stop offset="1" stop-color="#F7F7F8"/>
</linearGradient>
<linearGradient id="paint2_linear" x1="80.1253" y1="238.688" x2="3.32314" y2="161.885" gradientUnits="userSpaceOnUse">
<stop stop-color="white"/>
<stop offset="0.204224" stop-color="white"/>
<stop offset="0.903481" stop-color="#F0F0F0"/>
<stop offset="1" stop-color="#F8F8F8"/>
</linearGradient>
<linearGradient id="paint3_linear" x1="80.1253" y1="238.688" x2="3.32314" y2="161.885" gradientUnits="userSpaceOnUse">
<stop stop-color="#F1F1F1"/>
<stop offset="0.204224" stop-color="white"/>
<stop offset="0.903481" stop-color="#F0F0F0"/>
<stop offset="1" stop-color="#F8F8F8"/>
</linearGradient>
<linearGradient id="paint4_linear" x1="80.1253" y1="238.688" x2="3.32314" y2="161.885" gradientUnits="userSpaceOnUse">
<stop stop-color="white" stop-opacity="0.5"/>
<stop offset="0.0657694" stop-opacity="0.05"/>
<stop offset="0.949195" stop-opacity="0.05"/>
<stop offset="1" stop-opacity="0.1"/>
</linearGradient>
<linearGradient id="paint5_linear" x1="80.1255" y1="237.203" x2="4.80738" y2="161.885" gradientUnits="userSpaceOnUse">
<stop stop-color="#ECEDF0"/>
<stop offset="1" stop-color="#F8F8F8"/>
</linearGradient>
<linearGradient id="paint6_linear" x1="70.4906" y1="182.398" x2="47.9051" y2="204.983" gradientUnits="userSpaceOnUse">
<stop stop-color="#E3E6EB" stop-opacity="0.01"/>
<stop offset="1" stop-color="white"/>
</linearGradient>
<linearGradient id="paint7_linear" x1="120.245" y1="42.9146" x2="102.44" y2="60.7198" gradientUnits="userSpaceOnUse">
<stop stop-color="#B1B8C2"/>
<stop offset="0.0516372" stop-color="#ECEEF1"/>
<stop offset="0.920731" stop-color="#EDEEF1"/>
<stop offset="1" stop-color="#B1B8C2"/>
</linearGradient>
<linearGradient id="paint8_linear" x1="188.927" y1="132.833" x2="177.797" y2="143.963" gradientUnits="userSpaceOnUse">
<stop stop-color="#B1B8C2"/>
<stop offset="0.0516372" stop-color="#ECEEF1"/>
<stop offset="0.920731" stop-color="#EDEEF1"/>
<stop offset="1" stop-color="#B1B8C2"/>
</linearGradient>
<linearGradient id="paint9_linear" x1="180.59" y1="139.41" x2="182.09" y2="140.91" gradientUnits="userSpaceOnUse">
<stop stop-opacity="0.15"/>
<stop offset="0.520833" stop-color="white" stop-opacity="0"/>
</linearGradient>
<linearGradient id="paint10_linear" x1="204.348" y1="117.413" x2="193.202" y2="128.558" gradientUnits="userSpaceOnUse">
<stop stop-color="#B1B8C2"/>
<stop offset="0.0516372" stop-color="#ECEEF1"/>
<stop offset="0.920731" stop-color="#EDEEF1"/>
<stop offset="1" stop-color="#B1B8C2"/>
</linearGradient>
<linearGradient id="paint11_linear" x1="196" y1="124" x2="197.5" y2="125.5" gradientUnits="userSpaceOnUse">
<stop stop-opacity="0.15"/>
<stop offset="0.520833" stop-color="white" stop-opacity="0"/>
</linearGradient>
<linearGradient id="paint12_linear" x1="216.735" y1="105.395" x2="210.921" y2="111.208" gradientUnits="userSpaceOnUse">
<stop stop-color="#B1B8C2"/>
<stop offset="0.0516372" stop-color="#ECEEF1"/>
<stop offset="0.920731" stop-color="#EDEEF1"/>
<stop offset="1" stop-color="#B1B8C2"/>
</linearGradient>
<linearGradient id="paint13_linear" x1="216.716" y1="105.561" x2="211.182" y2="111.094" gradientUnits="userSpaceOnUse">
<stop stop-color="#111111"/>
<stop offset="0.153528" stop-color="#FEFEFE"/>
<stop offset="0.831036" stop-color="#FEFEFE"/>
<stop offset="1" stop-color="#1D1D1D"/>
</linearGradient>
<linearGradient id="paint14_linear" x1="188.836" y1="43.5284" x2="190.134" y2="42.2298" gradientUnits="userSpaceOnUse">
<stop stop-color="white" stop-opacity="0.2"/>
<stop offset="1" stop-opacity="0.1"/>
</linearGradient>
<linearGradient id="paint15_linear" x1="183.5" y1="39.5" x2="187.255" y2="37.8199" gradientUnits="userSpaceOnUse">
<stop stop-color="#EDF4F9"/>
<stop offset="1" stop-color="#EAEAEA"/>
</linearGradient>
<radialGradient id="paint16_radial" cx="0" cy="0" r="1" gradientUnits="userSpaceOnUse" gradientTransform="translate(186.258 38.8371) rotate(-151) scale(1.41643)">
<stop stop-color="white"/>
<stop offset="1" stop-color="#DBDBDC"/>
</radialGradient>
</defs>
</svg>
